<mxfile host="Electron" modified="2024-01-05T07:33:47.316Z" agent="Mozilla/5.0 (Windows NT 10.0; Win64; x64) AppleWebKit/537.36 (KHTML, like Gecko) draw.io/22.1.16 Chrome/120.0.6099.109 Electron/28.1.0 Safari/537.36" etag="Mrp9E57bq4qMhcsxOYLu" version="22.1.16" type="device">
  <diagram name="Page-1" id="W6wwgODH2DVGgfq05W44">
    <mxGraphModel dx="850" dy="583" grid="1" gridSize="10" guides="1" tooltips="1" connect="1" arrows="1" fold="1" page="1" pageScale="1" pageWidth="850" pageHeight="1100" math="0" shadow="0">
      <root>
        <mxCell id="0" />
        <mxCell id="1" parent="0" />
        <mxCell id="fBeSizHoTM2zkZ8skBRZ-15" value="data&lt;br&gt;&lt;br&gt;ptr" style="rounded=0;whiteSpace=wrap;html=1;fillColor=#fad7ac;strokeColor=#b46504;fontFamily=consolas;" parent="1" vertex="1">
          <mxGeometry x="120" y="230" width="40" height="60" as="geometry" />
        </mxCell>
        <mxCell id="fBeSizHoTM2zkZ8skBRZ-1" value="data&lt;br&gt;&lt;br&gt;ptr" style="rounded=0;whiteSpace=wrap;html=1;fillColor=#fad7ac;strokeColor=#b46504;fontFamily=consolas;" parent="1" vertex="1">
          <mxGeometry x="200" y="230" width="40" height="60" as="geometry" />
        </mxCell>
        <mxCell id="fBeSizHoTM2zkZ8skBRZ-5" style="edgeStyle=orthogonalEdgeStyle;rounded=0;orthogonalLoop=1;jettySize=auto;html=1;exitX=0.75;exitY=0.75;exitDx=0;exitDy=0;exitPerimeter=0;" parent="1" source="fBeSizHoTM2zkZ8skBRZ-1" target="fBeSizHoTM2zkZ8skBRZ-2" edge="1">
          <mxGeometry relative="1" as="geometry" />
        </mxCell>
        <mxCell id="fBeSizHoTM2zkZ8skBRZ-2" value="data&lt;br&gt;&lt;br&gt;ptr" style="rounded=0;whiteSpace=wrap;html=1;fillColor=#B0F9E0;strokeColor=#0E8088;fontFamily=consolas;" parent="1" vertex="1">
          <mxGeometry x="280" y="230" width="40" height="60" as="geometry" />
        </mxCell>
        <mxCell id="fBeSizHoTM2zkZ8skBRZ-6" style="edgeStyle=orthogonalEdgeStyle;rounded=0;orthogonalLoop=1;jettySize=auto;html=1;exitX=0.75;exitY=0.75;exitDx=0;exitDy=0;exitPerimeter=0;" parent="1" source="fBeSizHoTM2zkZ8skBRZ-2" target="fBeSizHoTM2zkZ8skBRZ-3" edge="1">
          <mxGeometry relative="1" as="geometry">
            <Array as="points" />
          </mxGeometry>
        </mxCell>
        <mxCell id="fBeSizHoTM2zkZ8skBRZ-3" value="data&lt;br&gt;&lt;br&gt;ptr" style="rounded=0;whiteSpace=wrap;html=1;fillColor=#B0F9E0;strokeColor=#0E8088;fontFamily=consolas;" parent="1" vertex="1">
          <mxGeometry x="360" y="230" width="40" height="60" as="geometry" />
        </mxCell>
        <mxCell id="fBeSizHoTM2zkZ8skBRZ-8" style="edgeStyle=orthogonalEdgeStyle;rounded=0;orthogonalLoop=1;jettySize=auto;html=1;exitX=0.75;exitY=0.75;exitDx=0;exitDy=0;exitPerimeter=0;" parent="1" source="fBeSizHoTM2zkZ8skBRZ-15" target="fBeSizHoTM2zkZ8skBRZ-1" edge="1">
          <mxGeometry relative="1" as="geometry">
            <mxPoint x="150" y="275" as="sourcePoint" />
            <mxPoint x="200" y="260" as="targetPoint" />
            <Array as="points">
              <mxPoint x="180" y="275" />
              <mxPoint x="180" y="260" />
            </Array>
          </mxGeometry>
        </mxCell>
        <mxCell id="fBeSizHoTM2zkZ8skBRZ-16" style="edgeStyle=orthogonalEdgeStyle;rounded=0;orthogonalLoop=1;jettySize=auto;html=1;exitX=0.75;exitY=0.75;exitDx=0;exitDy=0;exitPerimeter=0;" parent="1" edge="1">
          <mxGeometry relative="1" as="geometry">
            <mxPoint x="70" y="275" as="sourcePoint" />
            <mxPoint x="120" y="260" as="targetPoint" />
            <Array as="points">
              <mxPoint x="100" y="275" />
              <mxPoint x="100" y="260" />
            </Array>
          </mxGeometry>
        </mxCell>
        <mxCell id="fBeSizHoTM2zkZ8skBRZ-18" value="data&lt;br&gt;&lt;br&gt;ptr" style="rounded=0;whiteSpace=wrap;html=1;fillColor=#B0F9E0;strokeColor=#0E8088;fontFamily=consolas;" parent="1" vertex="1">
          <mxGeometry x="440" y="230" width="40" height="60" as="geometry" />
        </mxCell>
        <mxCell id="fBeSizHoTM2zkZ8skBRZ-19" style="edgeStyle=orthogonalEdgeStyle;rounded=0;orthogonalLoop=1;jettySize=auto;html=1;exitX=0.75;exitY=0.75;exitDx=0;exitDy=0;exitPerimeter=0;" parent="1" source="fBeSizHoTM2zkZ8skBRZ-18" target="fBeSizHoTM2zkZ8skBRZ-20" edge="1">
          <mxGeometry relative="1" as="geometry">
            <Array as="points">
              <mxPoint x="500" y="275" />
              <mxPoint x="500" y="260" />
            </Array>
          </mxGeometry>
        </mxCell>
        <mxCell id="fBeSizHoTM2zkZ8skBRZ-20" value="data&lt;br&gt;&lt;br&gt;ptr" style="rounded=0;whiteSpace=wrap;html=1;fillColor=#fad7ac;strokeColor=#b46504;fontFamily=consolas;" parent="1" vertex="1">
          <mxGeometry x="520" y="230" width="40" height="60" as="geometry" />
        </mxCell>
        <mxCell id="fBeSizHoTM2zkZ8skBRZ-21" style="edgeStyle=orthogonalEdgeStyle;rounded=0;orthogonalLoop=1;jettySize=auto;html=1;exitX=0.75;exitY=0.75;exitDx=0;exitDy=0;exitPerimeter=0;" parent="1" source="fBeSizHoTM2zkZ8skBRZ-20" target="fBeSizHoTM2zkZ8skBRZ-22" edge="1">
          <mxGeometry relative="1" as="geometry">
            <Array as="points" />
          </mxGeometry>
        </mxCell>
        <mxCell id="fBeSizHoTM2zkZ8skBRZ-22" value="data&lt;br&gt;&lt;br&gt;ptr" style="rounded=0;whiteSpace=wrap;html=1;fillColor=#fad7ac;strokeColor=#b46504;fontFamily=consolas;" parent="1" vertex="1">
          <mxGeometry x="600" y="230" width="40" height="60" as="geometry" />
        </mxCell>
        <mxCell id="fBeSizHoTM2zkZ8skBRZ-23" style="edgeStyle=orthogonalEdgeStyle;rounded=0;orthogonalLoop=1;jettySize=auto;html=1;exitX=0.75;exitY=0.75;exitDx=0;exitDy=0;exitPerimeter=0;" parent="1" source="fBeSizHoTM2zkZ8skBRZ-3" target="fBeSizHoTM2zkZ8skBRZ-18" edge="1">
          <mxGeometry relative="1" as="geometry">
            <mxPoint x="390" y="335" as="sourcePoint" />
            <mxPoint x="440" y="320" as="targetPoint" />
            <Array as="points">
              <mxPoint x="420" y="275" />
              <mxPoint x="420" y="260" />
            </Array>
          </mxGeometry>
        </mxCell>
        <mxCell id="fBeSizHoTM2zkZ8skBRZ-24" style="edgeStyle=orthogonalEdgeStyle;rounded=0;orthogonalLoop=1;jettySize=auto;html=1;exitX=0.75;exitY=0.75;exitDx=0;exitDy=0;exitPerimeter=0;" parent="1" edge="1">
          <mxGeometry relative="1" as="geometry">
            <mxPoint x="630" y="275" as="sourcePoint" />
            <mxPoint x="680" y="260" as="targetPoint" />
            <Array as="points">
              <mxPoint x="660" y="275" />
              <mxPoint x="660" y="260" />
            </Array>
          </mxGeometry>
        </mxCell>
        <mxCell id="fBeSizHoTM2zkZ8skBRZ-27" value="data&lt;br&gt;&lt;br&gt;ptr" style="rounded=0;whiteSpace=wrap;html=1;fillColor=#b1ddf0;strokeColor=#10739e;fontFamily=consolas;" parent="1" vertex="1">
          <mxGeometry x="120" y="300" width="40" height="60" as="geometry" />
        </mxCell>
        <mxCell id="fBeSizHoTM2zkZ8skBRZ-28" value="data&lt;br&gt;&lt;br&gt;ptr" style="rounded=0;whiteSpace=wrap;html=1;fillColor=#b1ddf0;strokeColor=#10739e;fontFamily=consolas;" parent="1" vertex="1">
          <mxGeometry x="200" y="300" width="40" height="60" as="geometry" />
        </mxCell>
        <mxCell id="fBeSizHoTM2zkZ8skBRZ-43" style="edgeStyle=entityRelationEdgeStyle;rounded=0;orthogonalLoop=1;jettySize=auto;html=1;exitX=0.75;exitY=0.75;exitDx=0;exitDy=0;exitPerimeter=0;" parent="1" source="fBeSizHoTM2zkZ8skBRZ-28" target="fBeSizHoTM2zkZ8skBRZ-37" edge="1">
          <mxGeometry relative="1" as="geometry">
            <mxPoint x="230" y="340" as="sourcePoint" />
          </mxGeometry>
        </mxCell>
        <mxCell id="fBeSizHoTM2zkZ8skBRZ-33" style="edgeStyle=orthogonalEdgeStyle;rounded=0;orthogonalLoop=1;jettySize=auto;html=1;exitX=0.75;exitY=0.75;exitDx=0;exitDy=0;exitPerimeter=0;" parent="1" source="fBeSizHoTM2zkZ8skBRZ-27" target="fBeSizHoTM2zkZ8skBRZ-28" edge="1">
          <mxGeometry relative="1" as="geometry">
            <mxPoint x="150" y="345" as="sourcePoint" />
            <mxPoint x="200" y="330" as="targetPoint" />
            <Array as="points">
              <mxPoint x="180" y="345" />
              <mxPoint x="180" y="330" />
            </Array>
          </mxGeometry>
        </mxCell>
        <mxCell id="fBeSizHoTM2zkZ8skBRZ-34" style="edgeStyle=orthogonalEdgeStyle;rounded=0;orthogonalLoop=1;jettySize=auto;html=1;exitX=0.75;exitY=0.75;exitDx=0;exitDy=0;exitPerimeter=0;" parent="1" edge="1">
          <mxGeometry relative="1" as="geometry">
            <mxPoint x="70" y="345" as="sourcePoint" />
            <mxPoint x="120" y="330" as="targetPoint" />
            <Array as="points">
              <mxPoint x="100" y="345" />
              <mxPoint x="100" y="330" />
            </Array>
          </mxGeometry>
        </mxCell>
        <mxCell id="fBeSizHoTM2zkZ8skBRZ-37" value="data&lt;br&gt;&lt;br&gt;ptr" style="rounded=0;whiteSpace=wrap;html=1;fillColor=#b1ddf0;strokeColor=#10739e;fontFamily=consolas;" parent="1" vertex="1">
          <mxGeometry x="520" y="300" width="40" height="60" as="geometry" />
        </mxCell>
        <mxCell id="fBeSizHoTM2zkZ8skBRZ-38" style="edgeStyle=orthogonalEdgeStyle;rounded=0;orthogonalLoop=1;jettySize=auto;html=1;exitX=0.75;exitY=0.75;exitDx=0;exitDy=0;exitPerimeter=0;" parent="1" source="fBeSizHoTM2zkZ8skBRZ-37" target="fBeSizHoTM2zkZ8skBRZ-39" edge="1">
          <mxGeometry relative="1" as="geometry">
            <Array as="points" />
          </mxGeometry>
        </mxCell>
        <mxCell id="fBeSizHoTM2zkZ8skBRZ-39" value="data&lt;br&gt;&lt;br&gt;ptr" style="rounded=0;whiteSpace=wrap;html=1;fillColor=#b1ddf0;strokeColor=#10739e;fontFamily=consolas;" parent="1" vertex="1">
          <mxGeometry x="600" y="300" width="40" height="60" as="geometry" />
        </mxCell>
        <mxCell id="fBeSizHoTM2zkZ8skBRZ-41" style="edgeStyle=orthogonalEdgeStyle;rounded=0;orthogonalLoop=1;jettySize=auto;html=1;exitX=0.75;exitY=0.75;exitDx=0;exitDy=0;exitPerimeter=0;" parent="1" edge="1">
          <mxGeometry relative="1" as="geometry">
            <mxPoint x="630" y="345" as="sourcePoint" />
            <mxPoint x="680" y="330" as="targetPoint" />
            <Array as="points">
              <mxPoint x="660" y="345" />
              <mxPoint x="660" y="330" />
            </Array>
          </mxGeometry>
        </mxCell>
        <mxCell id="0RcRQ7e_9pvhqNE98LAG-1" value="data&lt;br&gt;&lt;br&gt;ptr" style="rounded=0;whiteSpace=wrap;html=1;fillColor=#fad7ac;strokeColor=#b46504;fontFamily=consolas;" vertex="1" parent="1">
          <mxGeometry x="120" y="410" width="40" height="60" as="geometry" />
        </mxCell>
        <mxCell id="0RcRQ7e_9pvhqNE98LAG-2" value="data&lt;br&gt;&lt;br&gt;ptr" style="rounded=0;whiteSpace=wrap;html=1;fillColor=#fad7ac;strokeColor=#b46504;fontFamily=consolas;" vertex="1" parent="1">
          <mxGeometry x="200" y="410" width="40" height="60" as="geometry" />
        </mxCell>
        <mxCell id="0RcRQ7e_9pvhqNE98LAG-3" style="edgeStyle=orthogonalEdgeStyle;rounded=0;orthogonalLoop=1;jettySize=auto;html=1;exitX=0.75;exitY=0.75;exitDx=0;exitDy=0;exitPerimeter=0;" edge="1" source="0RcRQ7e_9pvhqNE98LAG-2" target="0RcRQ7e_9pvhqNE98LAG-4" parent="1">
          <mxGeometry relative="1" as="geometry" />
        </mxCell>
        <mxCell id="0RcRQ7e_9pvhqNE98LAG-4" value="data&lt;br&gt;&lt;br&gt;ptr" style="rounded=0;whiteSpace=wrap;html=1;fillColor=#B0F9E0;strokeColor=#0E8088;fontFamily=consolas;" vertex="1" parent="1">
          <mxGeometry x="280" y="410" width="40" height="60" as="geometry" />
        </mxCell>
        <mxCell id="0RcRQ7e_9pvhqNE98LAG-5" style="edgeStyle=orthogonalEdgeStyle;rounded=0;orthogonalLoop=1;jettySize=auto;html=1;exitX=0.75;exitY=0.75;exitDx=0;exitDy=0;exitPerimeter=0;" edge="1" source="0RcRQ7e_9pvhqNE98LAG-4" target="0RcRQ7e_9pvhqNE98LAG-6" parent="1">
          <mxGeometry relative="1" as="geometry">
            <Array as="points" />
          </mxGeometry>
        </mxCell>
        <mxCell id="0RcRQ7e_9pvhqNE98LAG-6" value="data&lt;br&gt;&lt;br&gt;ptr" style="rounded=0;whiteSpace=wrap;html=1;fillColor=#B0F9E0;strokeColor=#0E8088;fontFamily=consolas;" vertex="1" parent="1">
          <mxGeometry x="360" y="410" width="40" height="60" as="geometry" />
        </mxCell>
        <mxCell id="0RcRQ7e_9pvhqNE98LAG-7" style="edgeStyle=orthogonalEdgeStyle;rounded=0;orthogonalLoop=1;jettySize=auto;html=1;exitX=0.75;exitY=0.75;exitDx=0;exitDy=0;exitPerimeter=0;" edge="1" source="0RcRQ7e_9pvhqNE98LAG-1" target="0RcRQ7e_9pvhqNE98LAG-2" parent="1">
          <mxGeometry relative="1" as="geometry">
            <mxPoint x="150" y="455" as="sourcePoint" />
            <mxPoint x="200" y="440" as="targetPoint" />
            <Array as="points">
              <mxPoint x="180" y="455" />
              <mxPoint x="180" y="440" />
            </Array>
          </mxGeometry>
        </mxCell>
        <mxCell id="0RcRQ7e_9pvhqNE98LAG-8" style="edgeStyle=orthogonalEdgeStyle;rounded=0;orthogonalLoop=1;jettySize=auto;html=1;exitX=0.75;exitY=0.75;exitDx=0;exitDy=0;exitPerimeter=0;" edge="1" parent="1">
          <mxGeometry relative="1" as="geometry">
            <mxPoint x="70" y="455" as="sourcePoint" />
            <mxPoint x="120" y="440" as="targetPoint" />
            <Array as="points">
              <mxPoint x="100" y="455" />
              <mxPoint x="100" y="440" />
            </Array>
          </mxGeometry>
        </mxCell>
        <mxCell id="0RcRQ7e_9pvhqNE98LAG-9" value="data&lt;br&gt;&lt;br&gt;ptr" style="rounded=0;whiteSpace=wrap;html=1;fillColor=#B0F9E0;strokeColor=#0E8088;fontFamily=consolas;" vertex="1" parent="1">
          <mxGeometry x="440" y="410" width="40" height="60" as="geometry" />
        </mxCell>
        <mxCell id="0RcRQ7e_9pvhqNE98LAG-10" style="edgeStyle=orthogonalEdgeStyle;rounded=0;orthogonalLoop=1;jettySize=auto;html=1;exitX=0.75;exitY=0.75;exitDx=0;exitDy=0;exitPerimeter=0;" edge="1" source="0RcRQ7e_9pvhqNE98LAG-9" target="0RcRQ7e_9pvhqNE98LAG-11" parent="1">
          <mxGeometry relative="1" as="geometry">
            <Array as="points">
              <mxPoint x="500" y="455" />
              <mxPoint x="500" y="440" />
            </Array>
          </mxGeometry>
        </mxCell>
        <mxCell id="0RcRQ7e_9pvhqNE98LAG-11" value="data&lt;br&gt;&lt;br&gt;ptr" style="rounded=0;whiteSpace=wrap;html=1;fillColor=#b1ddf0;strokeColor=#10739e;fontFamily=consolas;" vertex="1" parent="1">
          <mxGeometry x="520" y="410" width="40" height="60" as="geometry" />
        </mxCell>
        <mxCell id="0RcRQ7e_9pvhqNE98LAG-12" style="edgeStyle=orthogonalEdgeStyle;rounded=0;orthogonalLoop=1;jettySize=auto;html=1;exitX=0.75;exitY=0.75;exitDx=0;exitDy=0;exitPerimeter=0;" edge="1" source="0RcRQ7e_9pvhqNE98LAG-11" target="0RcRQ7e_9pvhqNE98LAG-13" parent="1">
          <mxGeometry relative="1" as="geometry">
            <Array as="points" />
          </mxGeometry>
        </mxCell>
        <mxCell id="0RcRQ7e_9pvhqNE98LAG-13" value="data&lt;br&gt;&lt;br&gt;ptr" style="rounded=0;whiteSpace=wrap;html=1;fillColor=#b1ddf0;strokeColor=#10739e;fontFamily=consolas;" vertex="1" parent="1">
          <mxGeometry x="600" y="410" width="40" height="60" as="geometry" />
        </mxCell>
        <mxCell id="0RcRQ7e_9pvhqNE98LAG-14" style="edgeStyle=orthogonalEdgeStyle;rounded=0;orthogonalLoop=1;jettySize=auto;html=1;exitX=0.75;exitY=0.75;exitDx=0;exitDy=0;exitPerimeter=0;" edge="1" source="0RcRQ7e_9pvhqNE98LAG-6" target="0RcRQ7e_9pvhqNE98LAG-9" parent="1">
          <mxGeometry relative="1" as="geometry">
            <mxPoint x="390" y="515" as="sourcePoint" />
            <mxPoint x="440" y="500" as="targetPoint" />
            <Array as="points">
              <mxPoint x="420" y="455" />
              <mxPoint x="420" y="440" />
            </Array>
          </mxGeometry>
        </mxCell>
        <mxCell id="0RcRQ7e_9pvhqNE98LAG-15" style="edgeStyle=orthogonalEdgeStyle;rounded=0;orthogonalLoop=1;jettySize=auto;html=1;exitX=0.75;exitY=0.75;exitDx=0;exitDy=0;exitPerimeter=0;" edge="1" parent="1">
          <mxGeometry relative="1" as="geometry">
            <mxPoint x="630" y="455" as="sourcePoint" />
            <mxPoint x="680" y="440" as="targetPoint" />
            <Array as="points">
              <mxPoint x="660" y="455" />
              <mxPoint x="660" y="440" />
            </Array>
          </mxGeometry>
        </mxCell>
        <mxCell id="0RcRQ7e_9pvhqNE98LAG-16" value="data&lt;br&gt;&lt;br&gt;ptr" style="rounded=0;whiteSpace=wrap;html=1;fillColor=#b1ddf0;strokeColor=#10739e;fontFamily=consolas;" vertex="1" parent="1">
          <mxGeometry x="120" y="480" width="40" height="60" as="geometry" />
        </mxCell>
        <mxCell id="0RcRQ7e_9pvhqNE98LAG-17" value="data&lt;br&gt;&lt;br&gt;ptr" style="rounded=0;whiteSpace=wrap;html=1;fillColor=#b1ddf0;strokeColor=#10739e;fontFamily=consolas;" vertex="1" parent="1">
          <mxGeometry x="200" y="480" width="40" height="60" as="geometry" />
        </mxCell>
        <mxCell id="0RcRQ7e_9pvhqNE98LAG-18" style="edgeStyle=entityRelationEdgeStyle;rounded=0;orthogonalLoop=1;jettySize=auto;html=1;exitX=0.75;exitY=0.75;exitDx=0;exitDy=0;exitPerimeter=0;" edge="1" source="0RcRQ7e_9pvhqNE98LAG-17" target="0RcRQ7e_9pvhqNE98LAG-21" parent="1">
          <mxGeometry relative="1" as="geometry">
            <mxPoint x="230" y="520" as="sourcePoint" />
          </mxGeometry>
        </mxCell>
        <mxCell id="0RcRQ7e_9pvhqNE98LAG-19" style="edgeStyle=orthogonalEdgeStyle;rounded=0;orthogonalLoop=1;jettySize=auto;html=1;exitX=0.75;exitY=0.75;exitDx=0;exitDy=0;exitPerimeter=0;" edge="1" source="0RcRQ7e_9pvhqNE98LAG-16" target="0RcRQ7e_9pvhqNE98LAG-17" parent="1">
          <mxGeometry relative="1" as="geometry">
            <mxPoint x="150" y="525" as="sourcePoint" />
            <mxPoint x="200" y="510" as="targetPoint" />
            <Array as="points">
              <mxPoint x="180" y="525" />
              <mxPoint x="180" y="510" />
            </Array>
          </mxGeometry>
        </mxCell>
        <mxCell id="0RcRQ7e_9pvhqNE98LAG-20" style="edgeStyle=orthogonalEdgeStyle;rounded=0;orthogonalLoop=1;jettySize=auto;html=1;exitX=0.75;exitY=0.75;exitDx=0;exitDy=0;exitPerimeter=0;" edge="1" parent="1">
          <mxGeometry relative="1" as="geometry">
            <mxPoint x="70" y="525" as="sourcePoint" />
            <mxPoint x="120" y="510" as="targetPoint" />
            <Array as="points">
              <mxPoint x="100" y="525" />
              <mxPoint x="100" y="510" />
            </Array>
          </mxGeometry>
        </mxCell>
        <mxCell id="0RcRQ7e_9pvhqNE98LAG-21" value="data&lt;br&gt;&lt;br&gt;ptr" style="rounded=0;whiteSpace=wrap;html=1;fillColor=#fad7ac;strokeColor=#b46504;fontFamily=consolas;" vertex="1" parent="1">
          <mxGeometry x="520" y="480" width="40" height="60" as="geometry" />
        </mxCell>
        <mxCell id="0RcRQ7e_9pvhqNE98LAG-22" style="edgeStyle=orthogonalEdgeStyle;rounded=0;orthogonalLoop=1;jettySize=auto;html=1;exitX=0.75;exitY=0.75;exitDx=0;exitDy=0;exitPerimeter=0;" edge="1" source="0RcRQ7e_9pvhqNE98LAG-21" target="0RcRQ7e_9pvhqNE98LAG-23" parent="1">
          <mxGeometry relative="1" as="geometry">
            <Array as="points" />
          </mxGeometry>
        </mxCell>
        <mxCell id="0RcRQ7e_9pvhqNE98LAG-23" value="data&lt;br&gt;&lt;br&gt;ptr" style="rounded=0;whiteSpace=wrap;html=1;fillColor=#fad7ac;strokeColor=#b46504;fontFamily=consolas;" vertex="1" parent="1">
          <mxGeometry x="600" y="480" width="40" height="60" as="geometry" />
        </mxCell>
        <mxCell id="0RcRQ7e_9pvhqNE98LAG-24" style="edgeStyle=orthogonalEdgeStyle;rounded=0;orthogonalLoop=1;jettySize=auto;html=1;exitX=0.75;exitY=0.75;exitDx=0;exitDy=0;exitPerimeter=0;" edge="1" parent="1">
          <mxGeometry relative="1" as="geometry">
            <mxPoint x="630" y="525" as="sourcePoint" />
            <mxPoint x="680" y="510" as="targetPoint" />
            <Array as="points">
              <mxPoint x="660" y="525" />
              <mxPoint x="660" y="510" />
            </Array>
          </mxGeometry>
        </mxCell>
        <mxCell id="0RcRQ7e_9pvhqNE98LAG-28" value="data&lt;br&gt;&lt;br&gt;ptr" style="rounded=0;whiteSpace=wrap;html=1;fillColor=#b1ddf0;strokeColor=#10739e;fontFamily=consolas;" vertex="1" parent="1">
          <mxGeometry x="120" y="660" width="40" height="60" as="geometry" />
        </mxCell>
        <mxCell id="0RcRQ7e_9pvhqNE98LAG-29" value="data&lt;br&gt;&lt;br&gt;ptr" style="rounded=0;whiteSpace=wrap;html=1;fillColor=#b1ddf0;strokeColor=#10739e;fontFamily=consolas;" vertex="1" parent="1">
          <mxGeometry x="200" y="660" width="40" height="60" as="geometry" />
        </mxCell>
        <mxCell id="0RcRQ7e_9pvhqNE98LAG-30" style="edgeStyle=orthogonalEdgeStyle;rounded=0;orthogonalLoop=1;jettySize=auto;html=1;exitX=0.75;exitY=0.75;exitDx=0;exitDy=0;exitPerimeter=0;" edge="1" source="0RcRQ7e_9pvhqNE98LAG-29" target="0RcRQ7e_9pvhqNE98LAG-31" parent="1">
          <mxGeometry relative="1" as="geometry" />
        </mxCell>
        <mxCell id="0RcRQ7e_9pvhqNE98LAG-31" value="data&lt;br&gt;&lt;br&gt;ptr" style="rounded=0;whiteSpace=wrap;html=1;fillColor=#B0F9E0;strokeColor=#0E8088;fontFamily=consolas;" vertex="1" parent="1">
          <mxGeometry x="280" y="660" width="40" height="60" as="geometry" />
        </mxCell>
        <mxCell id="0RcRQ7e_9pvhqNE98LAG-32" style="edgeStyle=orthogonalEdgeStyle;rounded=0;orthogonalLoop=1;jettySize=auto;html=1;exitX=0.75;exitY=0.75;exitDx=0;exitDy=0;exitPerimeter=0;" edge="1" source="0RcRQ7e_9pvhqNE98LAG-31" target="0RcRQ7e_9pvhqNE98LAG-33" parent="1">
          <mxGeometry relative="1" as="geometry">
            <Array as="points" />
          </mxGeometry>
        </mxCell>
        <mxCell id="0RcRQ7e_9pvhqNE98LAG-33" value="data&lt;br&gt;&lt;br&gt;ptr" style="rounded=0;whiteSpace=wrap;html=1;fillColor=#B0F9E0;strokeColor=#0E8088;fontFamily=consolas;" vertex="1" parent="1">
          <mxGeometry x="360" y="660" width="40" height="60" as="geometry" />
        </mxCell>
        <mxCell id="0RcRQ7e_9pvhqNE98LAG-34" style="edgeStyle=orthogonalEdgeStyle;rounded=0;orthogonalLoop=1;jettySize=auto;html=1;exitX=0.75;exitY=0.75;exitDx=0;exitDy=0;exitPerimeter=0;" edge="1" source="0RcRQ7e_9pvhqNE98LAG-28" target="0RcRQ7e_9pvhqNE98LAG-29" parent="1">
          <mxGeometry relative="1" as="geometry">
            <mxPoint x="150" y="705" as="sourcePoint" />
            <mxPoint x="200" y="690" as="targetPoint" />
            <Array as="points">
              <mxPoint x="180" y="705" />
              <mxPoint x="180" y="690" />
            </Array>
          </mxGeometry>
        </mxCell>
        <mxCell id="0RcRQ7e_9pvhqNE98LAG-35" style="edgeStyle=orthogonalEdgeStyle;rounded=0;orthogonalLoop=1;jettySize=auto;html=1;exitX=0.75;exitY=0.75;exitDx=0;exitDy=0;exitPerimeter=0;" edge="1" parent="1">
          <mxGeometry relative="1" as="geometry">
            <mxPoint x="70" y="705" as="sourcePoint" />
            <mxPoint x="120" y="690" as="targetPoint" />
            <Array as="points">
              <mxPoint x="100" y="705" />
              <mxPoint x="100" y="690" />
            </Array>
          </mxGeometry>
        </mxCell>
        <mxCell id="0RcRQ7e_9pvhqNE98LAG-36" value="data&lt;br&gt;&lt;br&gt;ptr" style="rounded=0;whiteSpace=wrap;html=1;fillColor=#B0F9E0;strokeColor=#0E8088;fontFamily=consolas;" vertex="1" parent="1">
          <mxGeometry x="440" y="660" width="40" height="60" as="geometry" />
        </mxCell>
        <mxCell id="0RcRQ7e_9pvhqNE98LAG-37" style="edgeStyle=orthogonalEdgeStyle;rounded=0;orthogonalLoop=1;jettySize=auto;html=1;exitX=0.75;exitY=0.75;exitDx=0;exitDy=0;exitPerimeter=0;" edge="1" source="0RcRQ7e_9pvhqNE98LAG-36" target="0RcRQ7e_9pvhqNE98LAG-38" parent="1">
          <mxGeometry relative="1" as="geometry">
            <Array as="points">
              <mxPoint x="500" y="705" />
              <mxPoint x="500" y="690" />
            </Array>
          </mxGeometry>
        </mxCell>
        <mxCell id="0RcRQ7e_9pvhqNE98LAG-38" value="data&lt;br&gt;&lt;br&gt;ptr" style="rounded=0;whiteSpace=wrap;html=1;fillColor=#b1ddf0;strokeColor=#10739e;fontFamily=consolas;" vertex="1" parent="1">
          <mxGeometry x="520" y="660" width="40" height="60" as="geometry" />
        </mxCell>
        <mxCell id="0RcRQ7e_9pvhqNE98LAG-39" style="edgeStyle=orthogonalEdgeStyle;rounded=0;orthogonalLoop=1;jettySize=auto;html=1;exitX=0.75;exitY=0.75;exitDx=0;exitDy=0;exitPerimeter=0;" edge="1" source="0RcRQ7e_9pvhqNE98LAG-38" target="0RcRQ7e_9pvhqNE98LAG-40" parent="1">
          <mxGeometry relative="1" as="geometry">
            <Array as="points" />
          </mxGeometry>
        </mxCell>
        <mxCell id="0RcRQ7e_9pvhqNE98LAG-40" value="data&lt;br&gt;&lt;br&gt;ptr" style="rounded=0;whiteSpace=wrap;html=1;fillColor=#b1ddf0;strokeColor=#10739e;fontFamily=consolas;" vertex="1" parent="1">
          <mxGeometry x="600" y="660" width="40" height="60" as="geometry" />
        </mxCell>
        <mxCell id="0RcRQ7e_9pvhqNE98LAG-41" style="edgeStyle=orthogonalEdgeStyle;rounded=0;orthogonalLoop=1;jettySize=auto;html=1;exitX=0.75;exitY=0.75;exitDx=0;exitDy=0;exitPerimeter=0;" edge="1" source="0RcRQ7e_9pvhqNE98LAG-33" target="0RcRQ7e_9pvhqNE98LAG-36" parent="1">
          <mxGeometry relative="1" as="geometry">
            <mxPoint x="390" y="765" as="sourcePoint" />
            <mxPoint x="440" y="750" as="targetPoint" />
            <Array as="points">
              <mxPoint x="420" y="705" />
              <mxPoint x="420" y="690" />
            </Array>
          </mxGeometry>
        </mxCell>
        <mxCell id="0RcRQ7e_9pvhqNE98LAG-42" style="edgeStyle=orthogonalEdgeStyle;rounded=0;orthogonalLoop=1;jettySize=auto;html=1;exitX=0.75;exitY=0.75;exitDx=0;exitDy=0;exitPerimeter=0;" edge="1" parent="1">
          <mxGeometry relative="1" as="geometry">
            <mxPoint x="630" y="705" as="sourcePoint" />
            <mxPoint x="680" y="690" as="targetPoint" />
            <Array as="points">
              <mxPoint x="660" y="705" />
              <mxPoint x="660" y="690" />
            </Array>
          </mxGeometry>
        </mxCell>
        <mxCell id="0RcRQ7e_9pvhqNE98LAG-43" value="data&lt;br&gt;&lt;br&gt;ptr" style="rounded=0;whiteSpace=wrap;html=1;fillColor=#fad7ac;strokeColor=#b46504;fontFamily=consolas;" vertex="1" parent="1">
          <mxGeometry x="120" y="590" width="40" height="60" as="geometry" />
        </mxCell>
        <mxCell id="0RcRQ7e_9pvhqNE98LAG-44" value="data&lt;br&gt;&lt;br&gt;ptr" style="rounded=0;whiteSpace=wrap;html=1;fillColor=#fad7ac;strokeColor=#b46504;fontFamily=consolas;" vertex="1" parent="1">
          <mxGeometry x="200" y="590" width="40" height="60" as="geometry" />
        </mxCell>
        <mxCell id="0RcRQ7e_9pvhqNE98LAG-45" style="edgeStyle=entityRelationEdgeStyle;rounded=0;orthogonalLoop=1;jettySize=auto;html=1;exitX=0.75;exitY=0.75;exitDx=0;exitDy=0;exitPerimeter=0;elbow=vertical;" edge="1" source="0RcRQ7e_9pvhqNE98LAG-44" target="0RcRQ7e_9pvhqNE98LAG-48" parent="1">
          <mxGeometry relative="1" as="geometry">
            <mxPoint x="230" y="630" as="sourcePoint" />
          </mxGeometry>
        </mxCell>
        <mxCell id="0RcRQ7e_9pvhqNE98LAG-46" style="edgeStyle=orthogonalEdgeStyle;rounded=0;orthogonalLoop=1;jettySize=auto;html=1;exitX=0.75;exitY=0.75;exitDx=0;exitDy=0;exitPerimeter=0;" edge="1" source="0RcRQ7e_9pvhqNE98LAG-43" target="0RcRQ7e_9pvhqNE98LAG-44" parent="1">
          <mxGeometry relative="1" as="geometry">
            <mxPoint x="150" y="635" as="sourcePoint" />
            <mxPoint x="200" y="620" as="targetPoint" />
            <Array as="points">
              <mxPoint x="180" y="635" />
              <mxPoint x="180" y="620" />
            </Array>
          </mxGeometry>
        </mxCell>
        <mxCell id="0RcRQ7e_9pvhqNE98LAG-47" style="edgeStyle=orthogonalEdgeStyle;rounded=0;orthogonalLoop=1;jettySize=auto;html=1;exitX=0.75;exitY=0.75;exitDx=0;exitDy=0;exitPerimeter=0;" edge="1" parent="1">
          <mxGeometry relative="1" as="geometry">
            <mxPoint x="70" y="635" as="sourcePoint" />
            <mxPoint x="120" y="620" as="targetPoint" />
            <Array as="points">
              <mxPoint x="100" y="635" />
              <mxPoint x="100" y="620" />
            </Array>
          </mxGeometry>
        </mxCell>
        <mxCell id="0RcRQ7e_9pvhqNE98LAG-48" value="data&lt;br&gt;&lt;br&gt;ptr" style="rounded=0;whiteSpace=wrap;html=1;fillColor=#fad7ac;strokeColor=#b46504;fontFamily=consolas;" vertex="1" parent="1">
          <mxGeometry x="520" y="590" width="40" height="60" as="geometry" />
        </mxCell>
        <mxCell id="0RcRQ7e_9pvhqNE98LAG-49" style="edgeStyle=orthogonalEdgeStyle;rounded=0;orthogonalLoop=1;jettySize=auto;html=1;exitX=0.75;exitY=0.75;exitDx=0;exitDy=0;exitPerimeter=0;" edge="1" source="0RcRQ7e_9pvhqNE98LAG-48" target="0RcRQ7e_9pvhqNE98LAG-50" parent="1">
          <mxGeometry relative="1" as="geometry">
            <Array as="points" />
          </mxGeometry>
        </mxCell>
        <mxCell id="0RcRQ7e_9pvhqNE98LAG-50" value="data&lt;br&gt;&lt;br&gt;ptr" style="rounded=0;whiteSpace=wrap;html=1;fillColor=#fad7ac;strokeColor=#b46504;fontFamily=consolas;" vertex="1" parent="1">
          <mxGeometry x="600" y="590" width="40" height="60" as="geometry" />
        </mxCell>
        <mxCell id="0RcRQ7e_9pvhqNE98LAG-51" style="edgeStyle=orthogonalEdgeStyle;rounded=0;orthogonalLoop=1;jettySize=auto;html=1;exitX=0.75;exitY=0.75;exitDx=0;exitDy=0;exitPerimeter=0;" edge="1" parent="1">
          <mxGeometry relative="1" as="geometry">
            <mxPoint x="630" y="635" as="sourcePoint" />
            <mxPoint x="680" y="620" as="targetPoint" />
            <Array as="points">
              <mxPoint x="660" y="635" />
              <mxPoint x="660" y="620" />
            </Array>
          </mxGeometry>
        </mxCell>
        <mxCell id="0RcRQ7e_9pvhqNE98LAG-57" value="" style="endArrow=none;dashed=1;html=1;rounded=0;strokeWidth=2;strokeColor=#999999;" edge="1" parent="1">
          <mxGeometry width="50" height="50" relative="1" as="geometry">
            <mxPoint x="515" y="225" as="sourcePoint" />
            <mxPoint x="645" y="365" as="targetPoint" />
            <Array as="points">
              <mxPoint x="645" y="225" />
              <mxPoint x="645" y="240" />
              <mxPoint x="645" y="260" />
              <mxPoint x="645" y="295" />
              <mxPoint x="515" y="295" />
              <mxPoint x="515" y="365" />
            </Array>
          </mxGeometry>
        </mxCell>
        <mxCell id="0RcRQ7e_9pvhqNE98LAG-59" value="" style="endArrow=none;dashed=1;html=1;rounded=0;strokeWidth=2;strokeColor=#999999;" edge="1" parent="1">
          <mxGeometry width="50" height="50" relative="1" as="geometry">
            <mxPoint x="275" y="405" as="sourcePoint" />
            <mxPoint x="645" y="545" as="targetPoint" />
            <Array as="points">
              <mxPoint x="645" y="405" />
              <mxPoint x="645" y="475" />
              <mxPoint x="275" y="475" />
              <mxPoint x="275" y="545" />
            </Array>
          </mxGeometry>
        </mxCell>
        <mxCell id="0RcRQ7e_9pvhqNE98LAG-60" value="" style="shape=flexArrow;endArrow=classic;html=1;rounded=0;fillColor=#f5f5f5;gradientColor=#b3b3b3;strokeColor=#666666;" edge="1" parent="1">
          <mxGeometry width="50" height="50" relative="1" as="geometry">
            <mxPoint x="700" y="225" as="sourcePoint" />
            <mxPoint x="700" y="720" as="targetPoint" />
          </mxGeometry>
        </mxCell>
      </root>
    </mxGraphModel>
  </diagram>
</mxfile>
